<?xml version="1.0" encoding="UTF-8" standalone="no"?><!DOCTYPE svg PUBLIC "-//W3C//DTD SVG 1.1//EN" "http://www.w3.org/Graphics/SVG/1.1/DTD/svg11.dtd"><svg width="100%" height="100%" viewBox="0 0 938 404" version="1.1" xmlns="http://www.w3.org/2000/svg" xmlns:xlink="http://www.w3.org/1999/xlink" xml:space="preserve" xmlns:serif="http://www.serif.com/" style="fill-rule:evenodd;clip-rule:evenodd;stroke-linejoin:round;stroke-miterlimit:2;"><g transform="matrix(0.983551,-0.18063,0.18063,0.983551,-231.002,-135.997)"><g transform="matrix(107,0,0,107,169.028,401.32)"><path d="M0.621,-0.035c0.001,-0.032 0.003,-0.128 0.003,-0.177c-0,-0.088 0.012,-0.208 -0.085,-0.213c0.055,-0.038 0.155,-0.103 0.195,-0.13c0.049,-0.032 0.099,-0.063 0.156,-0.098c0.055,-0.034 0.011,-0.105 -0.051,-0.074c-0.019,0.01 -0.097,0.067 -0.119,0.082c-0.158,0.107 -0.375,0.262 -0.522,0.368c-0.022,0.016 -0.091,0.064 -0.116,0.086c-0.05,0.044 0,0.11 0.052,0.07c0.193,-0.147 0.271,-0.226 0.336,-0.24c0.081,-0.016 0.072,0.059 0.071,0.157c-0.001,0.094 -0.007,0.144 -0.007,0.165c0,0.065 0.086,0.064 0.087,0.004Z" style="fill:#00a3e0;fill-rule:nonzero;"/></g><g transform="matrix(107,0,0,107,270.678,401.32)"><path d="M0.354,-0.415c0.045,0.032 0.094,-0.027 0.057,-0.067c-0.04,-0.041 -0.106,-0.065 -0.138,-0.073c-0.051,-0.009 -0.076,0.051 -0.031,0.073c0.074,0.036 0.095,0.054 0.112,0.067Zm-0.008,0.324c0.015,-0.014 0.11,-0.105 0.22,-0.187c0.158,-0.118 0.196,-0.136 0.247,-0.17c0.05,-0.032 0.012,-0.095 -0.042,-0.067c-0.05,0.026 -0.157,0.104 -0.253,0.177c-0.062,0.047 -0.176,0.135 -0.227,0.184c-0.048,0.05 0.004,0.111 0.055,0.063Z" style="fill:#00a3e0;fill-rule:nonzero;"/></g><g transform="matrix(107,0,0,107,365.266,401.32)"><path d="M0.406,-0.034c0.058,-0.049 0.162,-0.167 0.207,-0.223c0.124,-0.157 0.15,-0.271 0.076,-0.323c-0.042,-0.028 -0.105,-0.036 -0.163,-0.007c0.042,-0.027 0.05,-0.061 0.023,-0.083c-0.018,-0.014 -0.043,-0.009 -0.058,0.012c-0.071,0.098 -0.16,0.207 -0.213,0.266c-0.036,0.041 0.023,0.085 0.062,0.047c0.029,-0.029 0.088,-0.12 0.117,-0.149c0.064,-0.058 0.144,-0.058 0.173,-0.036c0.043,0.032 0.026,0.095 -0.053,0.199c-0.052,0.067 -0.068,0.086 -0.133,0.151c-0.027,0.029 -0.062,0.059 -0.095,0.09c-0.045,0.04 0.012,0.094 0.057,0.056Zm0.138,-0.282c0.015,-0.011 0.017,-0.033 0.005,-0.049c-0.02,-0.027 -0.047,-0.045 -0.072,-0.062c-0.033,-0.023 -0.073,0.023 -0.04,0.049c0.004,0.003 0.017,0.016 0.03,0.028c0.006,0.006 0.016,0.017 0.032,0.033c0.01,0.011 0.031,0.012 0.045,0.001Z" style="fill:#00a3e0;fill-rule:nonzero;"/></g><g transform="matrix(107,0,0,107,466.916,401.32)"><path d="M0.254,-0.319c0.084,-0.004 0.161,-0.011 0.252,-0.013c0.1,-0.003 0.165,-0.005 0.244,-0.005c0.07,0.001 0.069,-0.093 -0.004,-0.089c-0.076,0.006 -0.144,0.012 -0.246,0.015c-0.115,0.004 -0.179,0.006 -0.251,0.007c-0.069,-0.002 -0.073,0.089 0.005,0.085Z" style="fill:#00a3e0;fill-rule:nonzero;"/></g><g transform="matrix(107,0,0,107,568.566,401.32)"><path d="M0.548,-0.043c0.07,0.016 0.162,-0.002 0.23,-0.031c0.06,-0.026 0.03,-0.108 -0.031,-0.08c-0.018,0.008 -0.116,0.048 -0.179,0.031c-0.071,-0.019 -0.081,-0.08 -0.084,-0.149c-0.001,-0.023 0.003,-0.07 0.008,-0.113c0.099,-0.033 0.213,-0.074 0.284,-0.09c0.065,-0.015 0.086,0.018 0.033,0.072c-0.024,0.024 -0.056,0.054 -0.103,0.087c-0.047,0.033 -0.002,0.099 0.053,0.065c0.016,-0.01 0.057,-0.042 0.096,-0.082c0.138,-0.14 0.06,-0.25 -0.075,-0.219c-0.061,0.016 -0.169,0.049 -0.279,0.088c0.021,-0.167 0.032,-0.213 0.036,-0.241c0.009,-0.061 -0.073,-0.07 -0.085,-0.009c-0.011,0.059 -0.022,0.157 -0.034,0.277c-0.112,0.04 -0.275,0.101 -0.368,0.145c-0.053,0.025 -0.03,0.098 0.025,0.076c0.027,-0.011 0.097,-0.049 0.336,-0.139c-0.002,0.041 -0.004,0.067 -0.004,0.085c0,0.117 0.032,0.201 0.141,0.227Z" style="fill:#00a3e0;fill-rule:nonzero;"/></g><g transform="matrix(107,0,0,107,670.216,401.32)"><path d="M0.369,-0.041c0.061,-0.047 0.171,-0.16 0.219,-0.213c0.133,-0.152 0.162,-0.264 0.094,-0.324c-0.043,-0.037 -0.116,-0.041 -0.163,-0.016c0.035,-0.026 0.048,-0.059 0.027,-0.081c-0.016,-0.017 -0.042,-0.013 -0.058,0.008c-0.075,0.094 -0.155,0.187 -0.21,0.25c-0.039,0.044 0.015,0.094 0.055,0.05c0.029,-0.031 0.08,-0.113 0.11,-0.137c0.07,-0.054 0.149,-0.043 0.176,-0.028c0.045,0.028 0.014,0.109 -0.087,0.229c-0.047,0.055 -0.126,0.125 -0.217,0.202c-0.048,0.037 0,0.102 0.054,0.06Z" style="fill:#00a3e0;fill-rule:nonzero;"/></g><g transform="matrix(107,0,0,107,769.512,401.32)"><path d="M0.393,-0.486c0.048,0.021 0.079,-0.044 0.033,-0.072c-0.03,-0.017 -0.096,-0.044 -0.156,-0.043c-0.046,0.002 -0.055,0.064 -0.011,0.071c0.053,0.009 0.084,0.019 0.134,0.044Zm-0,0.422c0.013,-0.013 0.04,-0.057 0.199,-0.193c0.101,-0.088 0.216,-0.176 0.223,-0.181c0.041,-0.033 -0.005,-0.086 -0.05,-0.057c-0.037,0.022 -0.289,0.238 -0.312,0.258c-0.049,0.043 -0.099,0.087 -0.125,0.124c-0.039,0.052 0.022,0.099 0.065,0.049Zm-0.028,-0.255c0.05,0.01 0.067,-0.061 0.017,-0.076c-0.039,-0.013 -0.096,-0.017 -0.13,-0.009c-0.047,0.008 -0.043,0.07 0.003,0.07c0.042,-0 0.075,0.006 0.11,0.015Z" style="fill:#00a3e0;fill-rule:nonzero;"/></g><g transform="matrix(107,0,0,107,871.162,401.32)"><path d="M0.371,-0.082c0.103,-0.011 0.162,-0.013 0.251,-0.013c0.027,-0 0.044,-0.041 0.017,-0.058c0.024,-0.088 0.035,-0.141 0.036,-0.147c0.01,-0.044 -0,-0.079 -0.027,-0.101c-0.057,-0.045 -0.223,-0.032 -0.291,-0.014c-0.042,0.011 -0.028,0.069 0.015,0.06c0.084,-0.021 0.187,-0.025 0.221,-0.008c0.02,0.011 0.026,0.039 0.016,0.068c-0.112,-0.005 -0.193,-0.002 -0.211,0c-0.043,0.007 -0.041,0.065 0.004,0.063c0.101,-0.008 0.153,-0.007 0.195,-0.006l-0.019,0.08c-0.04,0.002 -0.155,0.003 -0.213,0.011c-0.046,0.009 -0.042,0.069 0.006,0.065Z" style="fill:#00a3e0;fill-rule:nonzero;"/></g><g transform="matrix(107,0,0,107,972.812,401.32)"><path d="M0.261,-0.064c0.009,-0.009 0.07,-0.071 0.183,-0.166c0.077,-0.061 0.207,-0.159 0.231,-0.177c0.022,-0.014 0.176,-0.123 0.204,-0.139c0.053,-0.03 0.014,-0.1 -0.045,-0.069c-0.021,0.011 -0.081,0.05 -0.21,0.141c-0.035,0.025 -0.181,0.136 -0.231,0.177c-0.134,0.105 -0.169,0.139 -0.194,0.165c-0.043,0.045 0.012,0.114 0.062,0.068Zm0.067,-0.406c0.045,0.037 0.1,-0.027 0.057,-0.068c-0.021,-0.02 -0.073,-0.062 -0.152,-0.082c-0.058,-0.015 -0.08,0.053 -0.026,0.074c0.071,0.028 0.098,0.057 0.121,0.076Z" style="fill:#00a3e0;fill-rule:nonzero;"/></g><g transform="matrix(107,0,0,107,169.028,520.32)"><path d="M0.156,0.017c0.042,-0.028 0.113,-0.082 0.281,-0.199c0.037,-0.029 0.092,-0.065 0.157,-0.106c-0.002,0.159 -0.001,0.21 -0.001,0.233c0,0.055 0.083,0.056 0.084,-0.002c-0,-0.024 -0.006,-0.144 -0.007,-0.278l0.059,-0.033c0.051,-0.031 0.012,-0.091 -0.028,-0.072c0,0 -0.013,0.01 -0.025,0.016c-0,-0 -0.002,-0.103 -0.001,-0.144c0.048,-0.003 0.111,0.004 0.126,0.004c0.061,-0 0.059,-0.077 0.004,-0.081c-0.019,-0.001 -0.065,-0.004 -0.124,0c0.001,-0.049 0.002,-0.068 0.003,-0.08c0.001,-0.058 -0.079,-0.059 -0.083,0c-0.003,0.024 -0.003,0.05 -0.003,0.084c-0.054,0.005 -0.12,0.012 -0.155,0.015c-0.05,0.004 -0.137,0.017 -0.167,0.023c-0.058,0.012 -0.05,0.09 0.009,0.08c0.08,-0.014 0.133,-0.021 0.165,-0.025c0.053,-0.007 0.101,-0.012 0.147,-0.016c0,0.108 -0.002,0.136 -0.003,0.185c-0.032,0.019 -0.196,0.125 -0.201,0.129c-0.12,0.078 -0.246,0.165 -0.288,0.195c-0.048,0.035 -0.002,0.108 0.051,0.072Z" style="fill:#00a3e0;fill-rule:nonzero;"/></g><g transform="matrix(107,0,0,107,270.678,520.32)"><path d="M0.92,-0.651c0.024,0.038 0.071,0.003 0.047,-0.039c-0.012,-0.024 -0.039,-0.048 -0.065,-0.062c-0.037,-0.02 -0.068,0.014 -0.037,0.039c0.018,0.015 0.034,0.029 0.055,0.062Zm-0.104,0.056c0.024,0.043 0.072,0.006 0.048,-0.039c-0.013,-0.025 -0.042,-0.056 -0.062,-0.067c-0.035,-0.019 -0.065,0.016 -0.037,0.043c0.018,0.016 0.035,0.033 0.051,0.063Zm-0.414,0.543c0.048,-0.037 0.137,-0.13 0.218,-0.22c0.188,-0.211 0.148,-0.337 -0.107,-0.33c-0.086,0.003 -0.189,0.025 -0.233,0.037c-0.056,0.017 -0.036,0.09 0.019,0.075c0.056,-0.012 0.131,-0.034 0.215,-0.038c0.192,-0.006 0.163,0.074 0.051,0.203c-0.091,0.103 -0.174,0.176 -0.218,0.214c-0.053,0.043 0.003,0.101 0.055,0.059Z" style="fill:#00a3e0;fill-rule:nonzero;"/></g><g transform="matrix(107,0,0,107,366.978,520.32)"><path d="M0.922,-0.72c0.021,0.041 0.072,0.013 0.053,-0.03c-0.011,-0.024 -0.036,-0.056 -0.06,-0.073c-0.03,-0.021 -0.063,0.01 -0.038,0.038c0.014,0.016 0.029,0.035 0.045,0.065Zm-0.109,0.044c0.019,0.039 0.071,0.012 0.053,-0.029c-0.013,-0.028 -0.038,-0.063 -0.056,-0.075c-0.026,-0.022 -0.061,0.009 -0.038,0.035c0.015,0.019 0.03,0.043 0.041,0.069Zm-0.297,0.622c0.018,-0.051 0.041,-0.114 0.065,-0.177c0.033,-0.088 0.057,-0.145 0.081,-0.203c0.094,-0 0.114,0.004 0.15,0.003c0.051,-0.001 0.053,-0.068 0.002,-0.074c-0.017,-0.002 -0.066,-0.003 -0.122,-0.001c0.014,-0.037 0.029,-0.068 0.043,-0.1c0.02,-0.054 -0.049,-0.078 -0.072,-0.028c-0.011,0.027 -0.015,0.039 -0.052,0.133c-0.047,0.002 -0.09,0.004 -0.195,0.011c0.004,-0.042 0.007,-0.061 0.011,-0.083c0.008,-0.052 -0.066,-0.058 -0.078,-0.008c-0.006,0.021 -0.012,0.085 -0.013,0.096c-0.049,0.004 -0.12,0.011 -0.157,0.017c-0.057,0.01 -0.047,0.083 0.009,0.075c0.043,-0.006 0.104,-0.017 0.146,-0.023c-0.01,0.089 0.012,0.147 0.02,0.162c0.024,0.049 0.094,0.026 0.073,-0.024c-0.017,-0.042 -0.023,-0.077 -0.017,-0.146c0.073,-0.004 0.132,-0.007 0.175,-0.007c-0.024,0.06 -0.05,0.121 -0.074,0.179c-0.033,0.084 -0.063,0.154 -0.067,0.171c-0.018,0.059 0.052,0.084 0.072,0.027Z" style="fill:#00a3e0;fill-rule:nonzero;"/></g><g transform="matrix(107,0,0,107,468.628,520.32)"><path d="M0.254,-0.319c0.084,-0.004 0.161,-0.011 0.252,-0.013c0.1,-0.003 0.165,-0.005 0.244,-0.005c0.07,0.001 0.069,-0.093 -0.004,-0.089c-0.076,0.006 -0.144,0.012 -0.246,0.015c-0.115,0.004 -0.179,0.006 -0.251,0.007c-0.069,-0.002 -0.073,0.089 0.005,0.085Z" style="fill:#00a3e0;fill-rule:nonzero;"/></g><g transform="matrix(107,0,0,107,570.278,520.32)"><path d="M0.943,-0.659c0.025,0.033 0.08,-0.005 0.044,-0.047c-0.02,-0.025 -0.046,-0.044 -0.074,-0.056c-0.034,-0.013 -0.062,0.023 -0.032,0.045c0.018,0.014 0.039,0.027 0.062,0.058Zm-0.102,0.065c0.023,0.035 0.073,-0.004 0.044,-0.044c-0.019,-0.026 -0.044,-0.048 -0.071,-0.062c-0.031,-0.016 -0.059,0.021 -0.031,0.045c0.015,0.013 0.039,0.033 0.058,0.061Zm-0.73,0.568c0.022,-0.033 0.093,-0.143 0.179,-0.27c0.044,-0.065 0.174,-0.241 0.181,-0.252c0.037,-0.055 -0.033,-0.103 -0.074,-0.05c-0.017,0.022 -0.065,0.093 -0.147,0.209c-0.041,0.057 -0.193,0.272 -0.213,0.309c-0.037,0.064 0.038,0.108 0.074,0.054Zm0.722,-0.198c0.023,0.06 0.103,0.026 0.086,-0.035c-0.028,-0.104 -0.129,-0.24 -0.187,-0.299c-0.044,-0.043 -0.102,0.004 -0.063,0.049c0.012,0.014 0.094,0.098 0.164,0.285Z" style="fill:#00a3e0;fill-rule:nonzero;"/></g><g transform="matrix(107,0,0,107,671.928,520.32)"><path d="M0.254,-0.319c0.084,-0.004 0.161,-0.011 0.252,-0.013c0.1,-0.003 0.165,-0.005 0.244,-0.005c0.07,0.001 0.069,-0.093 -0.004,-0.089c-0.076,0.006 -0.144,0.012 -0.246,0.015c-0.115,0.004 -0.179,0.006 -0.251,0.007c-0.069,-0.002 -0.073,0.089 0.005,0.085Z" style="fill:#00a3e0;fill-rule:nonzero;"/></g></g><path d="M73.42,400.948c3.357,-1.086 7.597,-3.945 10.726,-7.002c8.762,-8.924 3.455,-18.82 -9.039,-17.062c-4.255,0.58 -12.119,3.433 -15.603,6.019c-2.866,1.935 -0.214,6.146 2.705,4.133c3.921,-2.397 8.622,-4.938 13.473,-5.561c7.873,-0.976 10.462,3.984 4.969,9.153c-3.235,3.211 -7.512,5.138 -9.376,5.95c-2.896,1.404 -0.94,5.474 2.145,4.37Z" style="fill:#fe89cc;fill-rule:nonzero;"/><path d="M144.536,390.639c4.058,1.268 6.298,-3.707 2.435,-5.01c-6.374,-2.185 -10.471,-5.861 -11.927,-11.231c-3.72,-13.677 8.814,-22.89 10.089,-23.259c3.186,-0.92 2.286,-5.452 -1.06,-5.039c-1.776,0.192 -6.425,1.918 -13.912,4.635c-5.391,2.064 -11.326,4.093 -12.96,5.064c-3.154,2.19 -1.329,6.284 2.252,4.955c1.888,-0.682 4.683,-2.269 7.892,-3.798c2.843,-1.327 5.946,-2.702 8.954,-3.859c-5.792,6.097 -8.046,13.557 -6.514,21.529c1.543,8.038 7.344,13.683 14.751,16.013Z" style="fill:#fe89cc;fill-rule:nonzero;"/><path d="M223.059,359.644c3.18,-0.585 2.293,-5.052 -0.746,-4.427l-23.11,4.245l-1.657,-9.024l18.111,-3.326c2.922,-0.536 2.087,-5.08 -0.834,-4.544l-18.111,3.326l-1.8,-9.802c5.168,-1.821 8.453,-3.297 10.919,-4.488c2.648,-1.291 5.474,-2.347 4.052,-4.972c-0.592,-1.032 -1.851,-1.673 -3.195,-0.956c-10.522,5.556 -22.192,9.242 -33.639,11.949c-1.481,0.339 -1.928,1.562 -1.672,2.588c0.577,2.78 3.208,1.76 5.976,1.117c4.691,-1.13 9.022,-2.395 13.081,-3.677l1.669,9.088l-19.345,3.552c-2.856,0.525 -1.891,5.045 1.03,4.509l19.149,-3.517l1.657,9.023l-24.342,4.471c-2.857,0.524 -1.851,4.903 1.005,4.378l24.148,-4.435l2.694,14.671c-2.174,-0.876 -5.197,-1.26 -9.741,-0.426c-2.142,0.394 -1.558,3.575 0.585,3.181c5.063,-0.93 8.11,-0.416 10.08,1.907c1.626,1.915 4.842,0.788 4.377,-1.744l-3.386,-18.435l23.045,-4.232Z" style="fill:#fe89cc;fill-rule:nonzero;"/><path d="M285.007,346.186c2.467,-0.453 1.722,-4.141 -0.668,-3.635l-24.862,4.566l-0.56,-3.051l18.5,-3.397c2.337,-0.43 1.723,-4.142 -0.614,-3.712l-18.566,3.409l-0.524,-2.856l13.826,-2.539c1.014,2.229 4.412,1.001 3.959,-1.465l-1.133,-6.167l6.102,-1.121c2.337,-0.429 1.788,-4.153 -0.549,-3.724l-6.232,1.145l-0.56,-3.051c-0.501,-2.727 -2.445,-3.444 -4.457,-3.074l-14.151,2.599l-0.489,-2.662c-0.465,-2.531 -4.62,-1.768 -4.155,0.763l0.489,2.662l-15.839,2.909c-2.337,0.429 -1.592,4.117 0.809,3.676l15.71,-2.885l0.572,3.116l-23.11,4.244c-2.336,0.429 -1.527,4.105 0.81,3.676l22.98,-4.22l0.584,3.181l-15.904,2.921c-2.337,0.429 -1.593,4.117 0.744,3.688l15.839,-2.909l0.525,2.856l-18.046,3.314c-2.337,0.43 -1.593,4.118 0.809,3.677l17.916,-3.291l0.561,3.051l-23.954,4.399c-2.337,0.429 -1.539,4.041 0.798,3.612l52.84,-9.705Zm-15.476,-21.784l-13.762,2.527l-0.572,-3.116l13.113,-2.408c0.389,-0.072 0.697,0.14 0.756,0.465l0.465,2.532Zm1.264,6.88l-13.762,2.528l-0.584,-3.181l13.762,-2.527l0.584,3.18Zm7.361,23.276c-0.5,-2.727 -2.432,-3.379 -5.028,-2.902l-28.952,5.317c-1.818,0.334 -3.45,2.043 -2.973,4.64l2.42,13.177c0.465,2.532 4.219,2.513 4.35,-0.061l28.563,-5.245c1.09,2.282 4.541,0.978 4.076,-1.554l-2.456,-13.372Zm-3.688,4.032l-28.432,5.222l-0.489,-2.662c-0.06,-0.324 0.217,-0.644 0.542,-0.703l27.134,-4.983c0.324,-0.06 0.697,0.14 0.756,0.465l0.489,2.661Zm1.323,7.206l-28.432,5.221l-0.668,-3.635l28.433,-5.222l0.667,3.636Z" style="fill:#fe89cc;fill-rule:nonzero;"/><path d="M330.551,323.06c-0.366,0.201 -2.135,1.532 -6.358,3.382c-0.913,-2.047 -1.908,-3.811 -2.79,-5.326c1.587,-0.493 3.564,-1.057 3.629,-1.069c3.381,-0.957 1.832,-5.369 -1.585,-4.608c-1.156,0.28 -2.991,0.885 -4.578,1.378c-0.847,-1.321 -1.782,-2.76 -2.492,-3.703c-2,-2.854 -6.275,-0.189 -4.47,2.7c0.468,0.719 1.13,1.403 2.118,2.765c-4.23,1.448 -6.801,2.792 -7.922,3.266c-3.014,1.493 -1.342,5.481 1.773,4.171c1.303,-0.575 3.273,-1.541 8.701,-3.41c1.036,1.622 2.208,3.621 3.186,5.656c-4.967,2.187 -9.841,3.417 -15.022,4.436c-3.311,0.608 -2.435,5.01 0.976,4.585c2.503,-0.258 9.3,-1.976 15.972,-4.745c1.429,3.764 1.535,6.898 -2.345,9.154c-2.182,1.273 -5.38,2.129 -8.566,3.05c-4.266,1.253 -6.168,6.971 0.867,9.839c5.547,2.068 12.398,3.561 17.038,3.984c3.608,0.277 4.089,-4.777 0.522,-5.196c-5.792,-0.48 -11.289,-1.55 -15.637,-3.302c-0.798,-0.323 -1.171,-1.261 0.115,-1.564c4.172,-1.035 9.9,-3.093 12.444,-6.781c1.99,-3.05 1.505,-6.786 -0.032,-11.134c3.18,-1.322 5.421,-2.27 6.783,-3.259c2.813,-1.858 0.61,-5.815 -2.327,-4.269Z" style="fill:#fe89cc;fill-rule:nonzero;"/><path d="M389.977,345.564c4.058,1.267 6.298,-3.707 2.435,-5.011c-6.373,-2.184 -10.471,-5.861 -11.927,-11.23c-3.719,-13.677 8.815,-22.891 10.089,-23.259c3.186,-0.921 2.287,-5.453 -1.06,-5.04c-1.776,0.193 -6.425,1.919 -13.911,4.636c-5.392,2.063 -11.327,4.093 -12.961,5.064c-3.154,2.19 -1.329,6.283 2.252,4.955c1.888,-0.683 4.683,-2.27 7.892,-3.798c2.843,-1.328 5.946,-2.703 8.954,-3.859c-5.792,6.096 -8.045,13.556 -6.514,21.529c1.543,8.037 7.344,13.682 14.751,16.013Zm10.721,-26.395c1.355,1.898 4.591,-0.575 2.869,-3.01c-0.988,-1.362 -2.969,-3.011 -4.818,-3.947c-2.233,-1.2 -4.454,1.691 -2.196,3.021c1.282,0.771 2.748,2.179 4.145,3.936Zm-6.963,4.835c1.775,2.358 4.769,-0.339 3.229,-2.875c-0.935,-1.438 -3.117,-3.453 -4.659,-4.177c-2.068,-1.029 -4.283,1.525 -2.285,2.903c1.188,0.99 2.537,2.487 3.715,4.149Z" style="fill:#fe89cc;fill-rule:nonzero;"/><path d="M470.013,312.21c2.467,-0.453 1.722,-4.141 -0.668,-3.635l-24.862,4.566l-0.56,-3.051l18.5,-3.398c2.337,-0.429 1.723,-4.141 -0.614,-3.712l-18.566,3.41l-0.524,-2.857l13.826,-2.539c1.014,2.23 4.412,1.002 3.959,-1.465l-1.133,-6.167l6.102,-1.12c2.337,-0.43 1.788,-4.154 -0.549,-3.724l-6.232,1.144l-0.56,-3.051c-0.501,-2.726 -2.445,-3.443 -4.457,-3.074l-14.151,2.599l-0.489,-2.661c-0.465,-2.532 -4.62,-1.769 -4.155,0.763l0.489,2.661l-15.839,2.909c-2.337,0.429 -1.592,4.118 0.809,3.677l15.71,-2.886l0.572,3.116l-23.11,4.244c-2.336,0.43 -1.527,4.106 0.81,3.677l22.979,-4.221l0.585,3.181l-15.904,2.921c-2.337,0.429 -1.593,4.117 0.744,3.688l15.839,-2.909l0.525,2.857l-18.046,3.314c-2.337,0.429 -1.593,4.117 0.809,3.676l17.916,-3.29l0.561,3.051l-23.954,4.399c-2.337,0.429 -1.539,4.04 0.798,3.611l52.84,-9.704Zm-15.476,-21.785l-13.762,2.527l-0.572,-3.115l13.113,-2.409c0.389,-0.071 0.697,0.141 0.756,0.465l0.465,2.532Zm1.264,6.881l-13.762,2.527l-0.584,-3.18l13.762,-2.528l0.584,3.181Zm7.361,23.275c-0.5,-2.726 -2.432,-3.378 -5.029,-2.901l-28.951,5.317c-1.818,0.334 -3.45,2.043 -2.973,4.639l2.42,13.178c0.465,2.531 4.219,2.513 4.35,-0.061l28.563,-5.246c1.09,2.283 4.541,0.978 4.076,-1.554l-2.456,-13.372Zm-3.688,4.033l-28.432,5.221l-0.489,-2.661c-0.06,-0.325 0.217,-0.644 0.542,-0.704l27.134,-4.983c0.324,-0.059 0.697,0.141 0.756,0.465l0.489,2.662Zm1.323,7.205l-28.432,5.222l-0.668,-3.635l28.433,-5.222l0.667,3.635Z" style="fill:#fe89cc;fill-rule:nonzero;"/><path d="M509.529,282.205c-3.907,3.938 -7.986,7.304 -10.498,12.262c-2.4,4.467 -1.875,8.061 0.623,11.427c3.248,4.168 10.073,8.081 16.91,12.06c3.286,1.812 0.613,6.262 -2.601,4.839c-2.841,-1.223 -13.751,-8.01 -18.188,-13.905c-4.036,-5.164 -4.494,-10.582 -1.187,-16.692c3.119,-5.673 7.938,-10.853 11.221,-13.804c2.97,-2.827 6.755,0.974 3.72,3.813Z" style="fill:#fe89cc;fill-rule:nonzero;"/><path d="M564.659,292.278c4.713,0.812 9.698,-0.908 12.061,-3.02c7.61,-6.43 0.334,-14.623 -7.643,-9.467c-2.459,1.592 -4.704,4.353 -6.387,6.877c-5.07,-2.76 -5.332,-10.764 -3.307,-16.907c1.21,-3.645 -3.78,-4.875 -4.99,-1.231c-3.36,9.475 0.051,18.914 5.824,22.215c-2.849,4.214 -5.225,9.549 -4.165,14.589c1.077,4.768 5.688,8.685 14.182,7.796c4.072,-0.479 7.311,-1.477 9.488,-2.413c3.533,-1.589 1.942,-6.598 -1.627,-5.204c-1.51,0.546 -5.481,1.946 -8.632,2.323c-3.671,0.473 -7.598,-0.081 -8.525,-3.668c-0.939,-3.652 1.69,-8.698 3.721,-11.89Zm8.544,-5.729c-1.333,0.781 -3.887,1.854 -6.213,1.61c0.877,-1.436 2.827,-3.606 4.136,-4.517c3.431,-2.509 5.71,0.763 2.077,2.907Z" style="fill:#fe89cc;fill-rule:nonzero;"/><path d="M615.148,274.886c0.82,-0.285 5.9,-2.224 12.473,-3.7c5.848,-1.409 10.877,-1.796 12.11,-2.022c3.323,-0.543 2.37,-4.999 -0.918,-4.999c-1.529,0.08 -6.864,0.992 -12.387,2.342c-5.511,1.415 -11.234,3.137 -12.59,3.789c-3.103,1.375 -2.009,5.871 1.312,4.59Zm-2.361,23.316c4.526,-1.301 13.122,-3.819 18.58,-5.157c6.786,-1.783 16.181,-3.24 18.855,-3.664c3.529,-0.514 2.599,-5.577 -0.877,-5.14c-1.44,0.198 -4.232,0.71 -9.767,1.995l-7.275,1.672c-0.488,-5.212 -1.218,-10.647 -1.828,-12.146c-1.192,-3.203 -5.872,-2.008 -5.252,1.367c0.227,1.234 1.61,5.476 2.465,11.962c-8.485,2.028 -15.335,3.823 -16.09,4.096c-3.375,1.357 -2.375,6.072 1.189,5.015Z" style="fill:#fe89cc;fill-rule:nonzero;"/><path d="M692.505,285.038c5.05,1.556 11.144,-0.704 14.481,-2.995c3.089,-2.177 0.644,-6.359 -2.594,-4.623c-1.604,0.764 -6.368,4.055 -10.219,2.816c-3.952,-1.421 -4.658,-6.727 -5.148,-10.127c7.67,-2.079 12.096,-2.825 15.914,-3.593c3.677,-0.81 2.393,-5.607 -1.254,-5.004c-2.791,0.513 -7.146,1.648 -15.3,4.018c-0.481,-4.811 -0.577,-6.068 -0.683,-9.202c2.366,-0.636 6.337,-1.298 8.162,-1.231c3.79,0.176 3.604,-4.487 -0.044,-4.622c-7.621,-0.211 -17.213,3.832 -20.215,5.39c-3.456,1.641 -1.742,6.225 1.808,4.365c1.958,-1.03 4.967,-2.187 5.462,-2.412c0.218,2.644 0.29,3.772 0.843,8.971c-4.762,1.479 -9.412,2.467 -11.942,3.67c-3.22,1.464 -1.902,5.717 1.39,4.643c3.28,-1.139 6.106,-2.195 11.074,-3.644c1.242,8.227 3.28,12.013 8.265,13.58Z" style="fill:#fe89cc;fill-rule:nonzero;"/><path d="M756.204,236.903c-3.907,3.938 -7.986,7.304 -10.498,12.262c-2.401,4.467 -1.875,8.061 0.622,11.427c3.248,4.168 10.074,8.082 16.911,12.06c3.285,1.812 0.613,6.262 -2.601,4.839c-2.842,-1.223 -13.751,-8.01 -18.189,-13.905c-4.035,-5.164 -4.493,-10.582 -1.186,-16.692c3.118,-5.673 7.938,-10.853 11.221,-13.804c2.97,-2.827 6.755,0.974 3.72,3.813Z" style="fill:#fe89cc;fill-rule:nonzero;"/><path d="M807.593,228.069c-1.244,0.899 -2.17,1.338 -2.288,1.427c0.064,-0.75 0.526,-2.982 0.573,-3.461c0.336,-3.282 -4.706,-3.699 -5.095,-0.339c-0.192,1.512 -0.359,3.891 -0.54,5.467c-3.198,0.856 -5.777,1.061 -6.231,1.145c-3.169,0.649 -2.188,4.898 1.053,4.638c0.596,-0.042 3.611,-0.798 4.195,-0.905c-0.467,2.569 -1.241,5.664 -2.068,8.835c-2.805,9.574 -6.137,18.104 -6.694,19.817c-1.08,3.621 3.763,5.147 5.085,1.75c0.811,-2.162 4.702,-14.955 6.203,-20.666c1.027,-3.544 1.835,-7.182 2.637,-11.221c1.121,-0.474 4.507,-1.767 5.539,-2.359c2.824,-1.794 0.456,-5.922 -2.369,-4.128Zm17.942,0.865c2.922,0.202 6.797,1.57 9.162,3.485c2.146,1.82 -0.085,5.384 -2.585,3.83c-3.333,-2.072 -6.841,-2.904 -7.55,-3.11c-2.575,-0.869 -1.625,-4.466 0.973,-4.205Zm7.823,24.331c-0.502,-0.176 -2.604,-0.662 -6.441,-0.36c-1.108,-6.037 -1.29,-8.487 -1.451,-9.732c-0.325,-3.228 -5.212,-2.801 -5.005,0.517c0.188,2.851 1.115,6.438 1.735,9.814c-2.284,0.352 -4.184,0.969 -5.812,1.604c-4.784,2.086 -5.739,6.019 -3.892,8.767c3.493,5.868 17.253,2.602 15.118,-6.467c1.877,-0.009 2.87,0.278 4.871,0.582c3.006,0.655 3.724,-3.838 0.877,-4.725Zm-13.154,9.126c-1.274,0.369 -3.252,0.195 -3.62,-1.079c-0.713,-2.419 3.961,-3.278 6.115,-3.606c0.482,2.26 0.119,3.937 -2.495,4.685Z" style="fill:#fe89cc;fill-rule:nonzero;"/><path d="M889.192,220.398c2.404,1.034 4.362,3.292 6.079,6.063c1.99,3.527 2.656,6.424 2.783,8.213c0.355,3.759 -4.602,4.535 -5.282,0.835c-0.357,-1.947 -0.945,-4.053 -2.113,-6.389c-1.184,-2.064 -2.071,-3.243 -4.276,-4.65c-2.701,-1.92 -0.198,-5.466 2.809,-4.072Zm-31.39,8.851c0.394,2.142 0.513,6.079 2.753,10.969c2.75,6.206 7.094,5.743 10.27,5.496c3.966,-0.326 4.312,4.844 0.417,5.56c-7.283,1.27 -12.649,-2.375 -15.879,-9.364c-1.914,-4.212 -2.873,-9.068 -3.143,-11.636c-0.379,-3.889 4.814,-4.843 5.582,-1.025Z" style="fill:#fe89cc;fill-rule:nonzero;"/><path d="M923.876,234.964c-0.345,-4.432 0.96,-7.558 2.644,-10.081c1.154,-1.756 2.443,-3.871 3.566,-6.158c4.257,-9.706 -3.22,-18.265 -13.96,-16.091c-5.936,1.292 -10.468,5.479 -10.972,11.141c-0.347,3.956 4.896,4.738 5.438,0.746c0.227,-2.054 1.374,-4.211 2.842,-5.353c1.321,-0.847 2.442,-1.321 3.74,-1.559c6.556,-1.204 10.674,3.676 8.057,9.525c-0.964,2.056 -2.419,4.001 -3.626,5.833c-2.407,4.066 -3.723,7.864 -3.1,12.715c0.485,3.736 5.608,3.131 5.371,-0.718Zm-0.188,14.328c1.948,-0.358 3.22,-2.202 2.862,-4.149c-0.37,-2.013 -2.29,-3.338 -4.173,-2.992c-2.077,0.382 -3.455,2.379 -3.097,4.327c0.345,1.882 2.331,3.195 4.408,2.814Z" style="fill:#fe89cc;fill-rule:nonzero;"/></svg>